<svg width="33" height="34" viewBox="0 0 33 34" fill="none" xmlns="http://www.w3.org/2000/svg">
<circle cx="16.5" cy="17" r="16.5" fill="#4600E9"/>
<path fill-rule="evenodd" clip-rule="evenodd" d="M26.8566 12.829C26.1873 13.2869 25.7631 13.8329 25.5909 14.4579C25.4905 14.8221 25.4558 15.1771 25.5169 15.2149C25.6108 15.2729 26.2449 14.9152 26.5437 14.6357C26.8673 14.333 27.1206 13.9043 27.2347 13.4659C27.3085 13.1827 27.3312 12.5728 27.2679 12.5728C27.2476 12.5728 27.0625 12.6881 26.8566 12.829ZM25.7985 14.6139C25.7631 14.5872 25.934 14.2611 26.0376 14.1575C26.2177 13.9774 26.2096 14.0189 26.0035 14.3334C25.8985 14.4936 25.8063 14.6198 25.7985 14.6139Z" fill="white"/>
<path d="M11.5345 17.4769C11.525 17.4863 11.3391 17.4723 11.1212 17.4456L10.7409 17.3991C10.7307 17.3978 10.7213 17.393 10.7144 17.3854L10.5001 17.1509C10.0337 16.6406 9.52573 16.4777 8.39767 16.4766C7.56586 16.4759 7.5391 16.4864 7.67937 16.7588C8.02383 17.4278 8.80297 17.8535 9.68281 17.8535C9.91909 17.8535 10.2249 17.8243 10.3625 17.7886C10.5068 17.7512 10.6425 17.7398 10.6835 17.7617C10.7224 17.7826 11.0413 17.8479 11.3921 17.9069L12.0299 18.0143L11.5345 17.4769Z" fill="white"/>
<path fill-rule="evenodd" clip-rule="evenodd" d="M10.9822 10.2549C10.9824 10.027 11.0098 9.76316 11.0431 9.66843C11.0765 9.57374 11.1214 9.49623 11.143 9.49623C11.2117 9.49623 11.3765 9.76481 11.4749 10.0367C11.5763 10.3171 11.6155 11.086 11.542 11.3503L11.5242 11.4141C11.5156 11.4452 11.4771 11.4559 11.4536 11.4339L11.3908 11.3749C11.1108 11.1119 10.9819 10.6165 10.9822 10.2549ZM23.8039 12.5767C23.8214 12.4751 23.898 12.3837 24.0475 12.1936C24.2016 11.9976 24.3438 11.8472 24.3634 11.8593C24.421 11.8949 24.678 12.6111 24.776 13.0091C24.926 13.6186 24.9776 14.155 24.9483 14.7999C24.8949 15.9713 24.505 17.0511 23.6948 18.271C23.2895 18.8813 22.7325 19.5385 21.6182 20.7214C20.4681 21.9423 20.332 22.0927 19.9647 22.548C18.8675 23.9082 18.3069 25.2332 18.3058 26.4689C18.305 27.3389 18.5706 28.2198 19.0693 29.0013C19.1543 29.1344 19.2237 29.2532 19.2237 29.2653C19.2237 29.2775 18.1493 29.2874 16.8361 29.2874C15.5229 29.2874 14.4485 29.2777 14.4485 29.2659C14.4485 29.254 14.6012 28.9286 14.7878 28.5427C15.1383 27.8177 15.2802 27.4594 15.8199 25.9353C16.9872 22.6387 17.8928 21.2331 19.9664 19.4993C20.9423 18.6835 21.9485 17.8921 22.7989 16.9409C22.9411 16.7818 23.078 16.6178 23.2016 16.4437C23.5074 16.0127 23.7755 15.4885 23.9347 15.0065C24.0489 14.6608 24.0638 14.5481 24.065 14.0193C24.0658 13.6646 24.0435 13.3609 23.9182 13.0291L23.9178 13.028C23.8289 12.7923 23.7862 12.6793 23.8039 12.5767Z" fill="white"/>
<path d="M26.0193 9.14596C25.3125 9.43989 24.8446 9.93724 24.7278 10.5189C24.6601 10.8564 24.7042 11.1034 24.8323 11.1034C25.1312 11.1034 25.8841 10.5321 26.142 10.1097C26.2776 9.88765 26.4325 9.39874 26.4325 9.19293C26.4325 9.00343 26.3771 8.99714 26.0193 9.14596Z" fill="white"/>
<path d="M20.3045 6.65498C19.7286 7.33656 19.7322 8.72529 20.3114 9.4021L20.4632 9.57945C20.4707 9.58817 20.4743 9.59951 20.4734 9.61094L20.4431 9.96938C20.4039 10.4327 20.2795 11.021 20.1196 11.4994C19.8358 12.3482 19.1067 13.6159 18.3137 14.6392C17.8849 15.1925 16.8615 16.4377 16.6582 16.6578C16.6406 16.6769 16.6089 16.7096 16.5932 16.7303L16.1546 17.3059L15.8818 17.729C15.7318 17.9616 15.5804 18.2074 15.5453 18.2752L15.5117 18.3403C15.4975 18.3677 15.4598 18.3716 15.4403 18.3476L15.1831 18.0313C14.8546 17.6271 14.4039 17.2127 13.8034 16.7628L13.4237 16.4782C13.4154 16.472 13.4096 16.463 13.4075 16.4528L13.1915 15.4276C12.7956 13.5489 12.7425 13.333 12.6194 13.1009C12.4592 12.7989 11.4003 11.7415 10.7709 11.2549L10.2978 10.8892C10.2892 10.8825 10.2835 10.8729 10.2817 10.8622L10.2304 10.5514C10.1603 10.1268 10.0065 9.83029 9.70131 9.53108C9.46186 9.29634 8.73084 8.81626 8.6841 8.863C8.67129 8.87582 8.63846 9.01316 8.61114 9.16828C8.4738 9.94798 8.92534 10.7918 9.68258 11.1707C9.86101 11.2599 10.0484 11.333 10.0991 11.333C10.1497 11.333 10.3381 11.4513 10.5176 11.5958C11.0208 12.001 12.106 13.0804 12.205 13.2742C12.2537 13.3696 12.3435 13.6899 12.4046 13.986C12.4656 14.2821 12.5884 14.8435 12.6773 15.2336C12.7661 15.6237 12.8304 15.9512 12.8201 15.9616C12.7864 15.9953 11.7591 15.2071 11.4214 14.8885C10.9724 14.465 10.5963 13.8919 10.4353 13.3861C10.3115 12.9975 10.1684 12.9283 9.8633 12.6647C9.65875 12.4879 9.47155 12.3432 9.4474 12.3432C9.37628 12.3432 9.32866 12.7409 9.33197 13.3075C9.33693 14.1574 9.56155 14.8203 10.1677 15.7736C10.2265 15.866 10.1976 15.8601 9.83231 15.7047C9.28913 15.4735 8.49772 14.8359 8.45296 14.5933C8.41558 14.3909 8.25125 14.1023 8.08177 13.9415C7.91391 13.7822 7.50631 13.5964 7.19565 13.5375C6.82497 13.4672 6 13.4766 6 13.5511C6 13.7027 6.2603 14.1067 6.50236 14.3308C6.88305 14.6833 7.4362 14.9147 7.89811 14.9147C8.05574 14.9147 8.11566 14.9502 8.38275 15.2022C8.90197 15.6921 9.24317 15.9254 9.78015 16.158C10.6918 16.5529 10.8768 16.6711 11.231 17.085C11.4074 17.2911 11.5439 17.4674 11.5345 17.4769L12.0299 18.0143L12.3327 18.3586C13.9184 20.1622 14.9294 21.716 15.3461 22.9899C15.3885 23.1198 15.4378 23.2261 15.4556 23.2261C15.4734 23.2261 15.5583 23.066 15.6442 22.8702C15.9895 22.0835 16.6255 21.0366 17.0344 20.5818C17.2097 20.3867 17.2558 20.2908 17.357 19.9106C17.6526 18.7999 18.1126 17.8035 18.9575 16.4437C19.2714 15.9384 19.3023 15.906 20.6843 14.6299C22.5418 12.9146 22.7131 12.75 22.8745 12.5253C22.95 12.4202 23.1223 12.2175 23.2575 12.0747C23.8477 11.4511 24.1367 10.7465 24.1367 9.93113C24.1367 9.48585 24.0535 9.1145 23.9154 8.94396L23.8645 8.88117C23.8478 8.86055 23.8166 8.85989 23.7991 8.87979L23.6149 9.08861C22.8859 9.91534 22.5837 10.7738 22.7093 11.6612L22.7653 12.0569C22.7672 12.07 22.7629 12.0831 22.7538 12.0926L22.5916 12.2615C22.4944 12.3627 22.0223 12.8024 21.5425 13.2386C21.0627 13.6747 20.5211 14.1766 20.339 14.3538L20.1902 14.4986C20.1555 14.5323 20.1003 14.4918 20.122 14.4486L20.1842 14.3247C20.9644 12.7703 21.2476 11.3342 21.0391 9.99014C20.9589 9.47336 20.9589 9.47323 21.0601 9.22072C21.2114 8.84289 21.2312 8.36143 21.1143 7.89925C21.0162 7.51119 20.7184 6.85496 20.5374 6.62798L20.468 6.54084C20.4511 6.5197 20.4191 6.51924 20.4017 6.53989L20.3045 6.65498Z" fill="white"/>
<path d="M15.7768 27.9531H17.9162L18.1539 28.6819H15.5391L15.7768 27.9531Z" fill="#4600E9"/>
<path d="M16.1421 26.9258H17.7168L17.8743 27.3973H15.9453L16.1421 26.9258Z" fill="#4600E9"/>
<path d="M16.5093 25.9844H17.6687L17.8499 26.3702H16.3281L16.5093 25.9844Z" fill="#4600E9"/>
<path d="M16.8459 25.1055H17.8093L17.9599 25.427H16.6953L16.8459 25.1055Z" fill="#4600E9"/>
<path d="M17.185 24.3125H17.9688L18.0913 24.5483H17.0625L17.185 24.3125Z" fill="#4600E9"/>
<circle cx="20.2742" cy="28.8133" r="0.492968" fill="white"/>
</svg>
